HIERARCHY
ROOT Hips
{
  OFFSET 0 0 0
  CHANNELS 6 Xposition Yposition Zposition Zrotation Yrotation Xrotation
  JOINT LeftThigh
  {
    OFFSET 8.409438 0 -5.917753
    CHANNELS 3 Zrotation Yrotation Xrotation
    JOINT LeftLeg
    {
      OFFSET 0 0 -42.358652
      CHANNELS 3 Zrotation Yrotation Xrotation
      JOINT LeftFoot
      {
        OFFSET 0 0 -39.357303
        CHANNELS 3 Zrotation Yrotation Xrotation
      }
    }
  }
  JOINT RightThigh
  {
    OFFSET -8.409438 0 -5.917753
    CHANNELS 3 Zrotation Yrotation Xrotation
    JOINT RightLeg
    {
      OFFSET 0 0 -42.358652
      CHANNELS 3 Zrotation Yrotation Xrotation
      JOINT RightFoot
      {
        OFFSET 0 0 -39.357303
        CHANNELS 3 Zrotation Yrotation Xrotation
      }
    }
  }
  JOINT SpineLow
  {
    OFFSET 0 0 4.719101
    CHANNELS 3 Zrotation Yrotation Xrotation
    JOINT SpineMid
    {
      OFFSET 0 0 12.899191
      CHANNELS 3 Zrotation Yrotation Xrotation
      JOINT Chest
      {
        OFFSET 0 0 12.899191
        CHANNELS 3 Zrotation Yrotation Xrotation
        JOINT LeftShoulder
        {
          OFFSET 7.550562 1.41573 9.438202
          CHANNELS 3 Zrotation Yrotation Xrotation
          JOINT LeftArm
          {
            OFFSET 9.155056 0 4.247191
            CHANNELS 3 Zrotation Yrotation Xrotation
            JOINT LeftForearm
            {
              OFFSET 0 0 25.771955
              CHANNELS 3 Zrotation Yrotation Xrotation
              JOINT LeftHand
              {
                OFFSET 0 0 25.197169
                CHANNELS 3 Zrotation Yrotation Xrotation
              }
            }
          }
        }
        JOINT RightShoulder
        {
          OFFSET -7.550562 1.41573 9.438202
          CHANNELS 3 Zrotation Yrotation Xrotation
          JOINT RightArm
          {
            OFFSET -9.155056 0 4.247191
            CHANNELS 3 Zrotation Yrotation Xrotation
            JOINT RightForearm
            {
              OFFSET 0 0 -25.771955
              CHANNELS 3 Zrotation Yrotation Xrotation
              JOINT RightHand
              {
                OFFSET 0 0 -25.197169
                CHANNELS 3 Zrotation Yrotation Xrotation
              }
            }
          }
        }
        JOINT Neck
        {
          OFFSET 0 0 15.101124
          CHANNELS 3 Zrotation Yrotation Xrotation
          JOINT Head
          {
            OFFSET 0 0 11.325843
            CHANNELS 3 Zrotation Yrotation Xrotation
            End Site
            {
              OFFSET 0 0 14.157303
            }
          }
        }
      }
    }
  }
}
MOTION
Frames: 5
Frame Time: 0.0
0.0  93.25843  0.0  -0.36683  -53.27963  -99.881628  31.98196  -30.850844  -35.306026  8.025382  0.016536  38.018795  6.102901  0.913116  7.901253  -10.936675  14.107414  -7.979897  8.704462  14.374052  42.944056  -8.087769  0.590856  -7.180816  1.645676  -0.476699  0.695465  4.484727  -1.349503  1.867779  4.484727  -1.349503  1.867779  -7.894103  12.295781  5.721687  -120.180053  60.746847  -73.28121  -30.823595  12.207418  88.131221  59.786453  -22.179712  8.527143  3.793186  -11.941673  17.269387  79.862151  38.604245  32.280448  0.997246  -11.186979  -125.194201  72.132593  -18.613385  -22.3193  -6.827214  8.564897  6.960364  -5.209806  6.348013  5.307587  
0.0  93.25843  0.0  -0.765054  -52.454417  -99.391989  32.206368  -30.270989  -36.079362  7.527304  0.006473  38.247833  6.268709  0.922575  7.876224  -10.922541  14.220083  -7.525191  8.223942  13.972441  42.40069  -8.574814  0.655411  -7.080928  1.627992  -0.511946  0.67059  4.436012  -1.443632  1.797843  4.436012  -1.443632  1.797843  -8.068645  12.42435  5.811463  -120.315286  60.653818  -73.089428  -30.892778  11.924012  88.126396  59.79977  -22.129866  8.579627  3.738423  -11.975472  17.343916  79.588188  38.666495  32.071162  0.926561  -11.378935  -124.870226  72.157083  -18.68293  -21.602587  -7.114486  8.404108  6.876387  -5.422212  6.225144  5.247285  
0.0  93.25843  0.0  -1.30328  -51.556589  -98.710959  32.222108  -29.792446  -37.059584  7.335561  -0.100229  38.759808  6.398837  0.929039  7.828855  -11.039274  14.323151  -7.202624  7.619604  13.66039  41.843974  -8.806873  0.834479  -7.064613  1.613315  -0.56111  0.634248  4.395533  -1.575134  1.695637  4.395533  -1.575134  1.695636  -8.288103  12.565977  5.811451  -120.508844  60.616505  -72.712514  -31.041199  11.613498  88.016274  59.942663  -21.987865  8.534931  2.331446  -12.173336  16.776513  80.875776  38.00859  32.645425  0.911234  -11.587308  -124.646642  72.034355  -18.757416  -20.538716  -8.003763  8.064991  6.697206  -6.082608  5.963273  5.121844  
0.0  93.25843  0.0  -1.831538  -50.480768  -98.003043  32.115357  -29.311326  -38.120698  7.192912  -0.131295  39.298369  6.600093  0.923662  7.814071  -11.689226  14.424049  -7.047848  7.101674  13.533904  41.238905  -9.195246  0.855968  -6.856294  1.600125  -0.608345  0.585255  4.359647  -1.700618  1.559003  4.359647  -1.700618  1.559003  -8.606792  12.741377  5.78901  -120.713103  60.574748  -72.440685  -31.223767  11.30835  87.848867  59.922041  -21.908304  8.561919  2.211582  -12.229238  16.785204  80.311329  38.070907  32.290939  0.725949  -11.701551  -124.515994  71.756998  -18.776699  -19.349681  -8.480956  7.879288  6.662911  -6.437915  5.819328  5.100382  
0.0  93.25843  0.0  -2.225678  -49.554615  -97.470994  31.889103  -28.8973  -39.132418  7.338702  -0.226215  40.069968  6.753943  0.936147  7.795628  -12.272692  14.641877  -6.880941  6.536832  13.501058  40.557666  -9.165707  0.892833  -6.639926  1.634205  -0.680632  0.515221  4.453322  -1.894177  1.361921  4.453322  -1.894177  1.361922  -8.717038  13.176603  5.973588  -121.185935  60.69107  -72.140683  -31.50883  11.107614  87.646094  60.065045  -21.878216  8.484625  1.9402  -12.142583  16.925466  79.669391  38.056318  31.850499  0.379044  -11.560752  -124.435623  71.367274  -18.712119  -18.213384  -9.521571  7.637991  6.675859  -7.215421  5.62708  5.12054  
